<svg xmlns="http://www.w3.org/2000/svg" width="1252" height="640" viewBox="0 0 1252 640" role="img">
<rect width="100%" height="100%" fill="#f8fafc" />
<text x="48" y="34" fill="#0f172a" font-family="Segoe UI, Malgun Gothic, sans-serif" font-size="24" font-weight="700">precision-scientific-calculator execution flow</text>
<text x="48" y="56" fill="#475569" font-family="Segoe UI, Malgun Gothic, sans-serif" font-size="13" font-weight="600">Layer 1</text>
<text x="360" y="56" fill="#475569" font-family="Segoe UI, Malgun Gothic, sans-serif" font-size="13" font-weight="600">Layer 2</text>
<text x="672" y="56" fill="#475569" font-family="Segoe UI, Malgun Gothic, sans-serif" font-size="13" font-weight="600">Layer 3</text>
<text x="984" y="56" fill="#475569" font-family="Segoe UI, Malgun Gothic, sans-serif" font-size="13" font-weight="600">Layer 4</text>
<path d="M 268 136.0 C 314.0 136.0, 314.0 136.0, 348 136.0" stroke="#94a3b8" stroke-width="3" fill="none" stroke-linecap="round" />
<polygon points="340,129.0 356,136.0 340,143.0" fill="#94a3b8" />
<path d="M 268 136.0 C 314.0 136.0, 314.0 300.0, 348 300.0" stroke="#94a3b8" stroke-width="3" fill="none" stroke-linecap="round" />
<polygon points="340,293.0 356,300.0 340,307.0" fill="#94a3b8" />
<path d="M 268 136.0 C 314.0 136.0, 314.0 464.0, 348 464.0" stroke="#94a3b8" stroke-width="3" fill="none" stroke-linecap="round" />
<polygon points="340,457.0 356,464.0 340,471.0" fill="#94a3b8" />
<path d="M 580 136.0 C 626.0 136.0, 626.0 136.0, 660 136.0" stroke="#94a3b8" stroke-width="3" fill="none" stroke-linecap="round" />
<polygon points="652,129.0 668,136.0 652,143.0" fill="#94a3b8" />
<path d="M 580 300.0 C 626.0 300.0, 626.0 136.0, 660 136.0" stroke="#94a3b8" stroke-width="3" fill="none" stroke-linecap="round" />
<polygon points="652,129.0 668,136.0 652,143.0" fill="#94a3b8" />
<path d="M 580 136.0 C 626.0 136.0, 626.0 300.0, 660 300.0" stroke="#94a3b8" stroke-width="3" fill="none" stroke-linecap="round" />
<polygon points="652,293.0 668,300.0 652,307.0" fill="#94a3b8" />
<path d="M 580 300.0 C 626.0 300.0, 626.0 300.0, 660 300.0" stroke="#94a3b8" stroke-width="3" fill="none" stroke-linecap="round" />
<polygon points="652,293.0 668,300.0 652,307.0" fill="#94a3b8" />
<path d="M 580 136.0 C 782.0 136.0, 782.0 136.0, 972 136.0" stroke="#94a3b8" stroke-width="3" fill="none" stroke-linecap="round" />
<polygon points="964,129.0 980,136.0 964,143.0" fill="#94a3b8" />
<path d="M 580 300.0 C 782.0 300.0, 782.0 136.0, 972 136.0" stroke="#94a3b8" stroke-width="3" fill="none" stroke-linecap="round" />
<polygon points="964,129.0 980,136.0 964,143.0" fill="#94a3b8" />
<path d="M 580 464.0 C 782.0 464.0, 782.0 136.0, 972 136.0" stroke="#94a3b8" stroke-width="3" fill="none" stroke-linecap="round" />
<polygon points="964,129.0 980,136.0 964,143.0" fill="#94a3b8" />
<path d="M 892 136.0 C 938.0 136.0, 938.0 136.0, 972 136.0" stroke="#94a3b8" stroke-width="3" fill="none" stroke-linecap="round" />
<polygon points="964,129.0 980,136.0 964,143.0" fill="#94a3b8" />
<path d="M 892 300.0 C 938.0 300.0, 938.0 136.0, 972 136.0" stroke="#94a3b8" stroke-width="3" fill="none" stroke-linecap="round" />
<polygon points="964,129.0 980,136.0 964,143.0" fill="#94a3b8" />
<rect x="48" y="68" rx="20" ry="20" width="220" height="136" fill="#0f766e" />
<text x="66" y="94" fill="#ecfeff" font-family="Segoe UI, Malgun Gothic, sans-serif" font-size="14" font-weight="700">ST1</text>
<text x="66" y="116" fill="#ecfeff" font-family="Segoe UI, Malgun Gothic, sans-serif" font-size="13">Scaffold contracts and<tspan x="66" dy="16">app skeleton</tspan></text>
<text x="66" y="150" fill="#ecfeff" font-family="Segoe UI, Malgun Gothic, sans-serif" font-size="11">Create the project skeleton<tspan x="66" dy="14">and freeze shared contrac...</tspan></text>
<text x="66" y="188" fill="#ecfeff" font-family="Segoe UI, Malgun Gothic, sans-serif" font-size="11">completed</text>
<rect x="360" y="68" rx="20" ry="20" width="220" height="136" fill="#0f766e" />
<text x="378" y="94" fill="#ecfeff" font-family="Segoe UI, Malgun Gothic, sans-serif" font-size="14" font-weight="700">ST2</text>
<text x="378" y="116" fill="#ecfeff" font-family="Segoe UI, Malgun Gothic, sans-serif" font-size="13">Build shell, settings,<tspan x="378" dy="16">and persistence works...</tspan></text>
<text x="378" y="150" fill="#ecfeff" font-family="Segoe UI, Malgun Gothic, sans-serif" font-size="11">Implement the product shell<tspan x="378" dy="14">and persistent settings,...</tspan></text>
<text x="378" y="188" fill="#ecfeff" font-family="Segoe UI, Malgun Gothic, sans-serif" font-size="11">completed</text>
<rect x="360" y="232" rx="20" ry="20" width="220" height="136" fill="#0f766e" />
<text x="378" y="258" fill="#ecfeff" font-family="Segoe UI, Malgun Gothic, sans-serif" font-size="14" font-weight="700">ST3</text>
<text x="378" y="280" fill="#ecfeff" font-family="Segoe UI, Malgun Gothic, sans-serif" font-size="13">Implement expression<tspan x="378" dy="16">engine and precision...</tspan></text>
<text x="378" y="314" fill="#ecfeff" font-family="Segoe UI, Malgun Gothic, sans-serif" font-size="11">Build the parser, evaluator,<tspan x="378" dy="14">and configurable numeric...</tspan></text>
<text x="378" y="352" fill="#ecfeff" font-family="Segoe UI, Malgun Gothic, sans-serif" font-size="11">completed</text>
<rect x="360" y="396" rx="20" ry="20" width="220" height="136" fill="#0f766e" />
<text x="378" y="422" fill="#ecfeff" font-family="Segoe UI, Malgun Gothic, sans-serif" font-size="14" font-weight="700">ST4</text>
<text x="378" y="444" fill="#ecfeff" font-family="Segoe UI, Malgun Gothic, sans-serif" font-size="13">Implement matrix engine<tspan x="378" dy="16">and matrix mode</tspan></text>
<text x="378" y="478" fill="#ecfeff" font-family="Segoe UI, Malgun Gothic, sans-serif" font-size="11">Add stable matrix operations<tspan x="378" dy="14">and a dedicated matrix wo...</tspan></text>
<text x="378" y="516" fill="#ecfeff" font-family="Segoe UI, Malgun Gothic, sans-serif" font-size="11">completed</text>
<rect x="672" y="68" rx="20" ry="20" width="220" height="136" fill="#0f766e" />
<text x="690" y="94" fill="#ecfeff" font-family="Segoe UI, Malgun Gothic, sans-serif" font-size="14" font-weight="700">ST5</text>
<text x="690" y="116" fill="#ecfeff" font-family="Segoe UI, Malgun Gothic, sans-serif" font-size="13">Add numerical solver<tspan x="690" dy="16">mode</tspan></text>
<text x="690" y="150" fill="#ecfeff" font-family="Segoe UI, Malgun Gothic, sans-serif" font-size="11">Implement root-finding<tspan x="690" dy="14">services and solver UI on...</tspan></text>
<text x="690" y="188" fill="#ecfeff" font-family="Segoe UI, Malgun Gothic, sans-serif" font-size="11">completed</text>
<rect x="672" y="232" rx="20" ry="20" width="220" height="136" fill="#0f766e" />
<text x="690" y="258" fill="#ecfeff" font-family="Segoe UI, Malgun Gothic, sans-serif" font-size="14" font-weight="700">ST6</text>
<text x="690" y="280" fill="#ecfeff" font-family="Segoe UI, Malgun Gothic, sans-serif" font-size="13">Add numerical analysis<tspan x="690" dy="16">tools</tspan></text>
<text x="690" y="314" fill="#ecfeff" font-family="Segoe UI, Malgun Gothic, sans-serif" font-size="11">Implement differentiation<tspan x="690" dy="14">and integration utilities...</tspan></text>
<text x="690" y="352" fill="#ecfeff" font-family="Segoe UI, Malgun Gothic, sans-serif" font-size="11">completed</text>
<rect x="984" y="68" rx="20" ry="20" width="220" height="136" fill="#0f766e" />
<text x="1002" y="94" fill="#ecfeff" font-family="Segoe UI, Malgun Gothic, sans-serif" font-size="14" font-weight="700">ST7</text>
<text x="1002" y="116" fill="#ecfeff" font-family="Segoe UI, Malgun Gothic, sans-serif" font-size="13">Integrate product flow<tspan x="1002" dy="16">and project docs</tspan></text>
<text x="1002" y="150" fill="#ecfeff" font-family="Segoe UI, Malgun Gothic, sans-serif" font-size="11">Wire all feature slices into<tspan x="1002" dy="14">one runnable app and docu...</tspan></text>
<text x="1002" y="188" fill="#ecfeff" font-family="Segoe UI, Malgun Gothic, sans-serif" font-size="11">completed</text>
</svg>